<svg width="60" height="60" viewBox="0 0 60 60" fill="none" xmlns="http://www.w3.org/2000/svg">
<rect width="60" height="60" rx="10" fill="white"/>
<path d="M44.3122 17.0316C44.5218 15.8595 44.3122 15 43.3211 15H40.0379C39.2025 15 38.8207 15.7436 38.6111 16.5602C38.6111 16.5602 36.9418 23.4137 34.5764 27.8575C33.8128 29.1506 33.464 29.5589 33.0478 29.5589C32.8397 29.5589 32.5373 29.1506 32.5373 27.9785V17.0316C32.5373 15.6251 32.2963 15 31.6001 15H26.441C25.92 15 25.6056 15.6503 25.6056 16.2704C25.6056 17.6012 26.7883 17.9088 26.9096 21.6594V29.7958C26.9096 31.5779 26.7195 31.903 26.3003 31.903C25.1879 31.903 22.4811 25.0244 20.8747 17.1501C20.5618 15.6201 20.2459 15.0025 19.4075 15.0025H16.1258C15.1871 15.0025 15 15.7461 15 16.5628C15 18.0297 16.1124 25.289 20.1815 34.8899C22.8943 41.446 26.7135 45 30.1928 45C32.2783 45 32.5358 44.2111 32.5358 42.8499V37.8945C32.5358 36.3166 32.7349 35.999 33.3951 35.999C33.8802 35.999 34.7156 36.4124 36.6634 39.5707C38.8881 43.3162 39.2564 44.9975 40.5065 44.9975H43.7882C44.7254 44.9975 45.194 44.2085 44.9245 42.6508C44.6295 41.1007 43.5666 38.8447 42.1563 36.1754C41.3898 34.653 40.2445 33.0146 39.8956 32.1954C39.4091 31.1393 39.5498 30.673 39.8956 29.7353C39.8971 29.7379 43.896 20.2554 44.3122 17.0316Z" fill="black"/>
</svg>
